<?xml version="1.0" encoding="UTF-8"?>
<!DOCTYPE svg  PUBLIC '-//W3C//DTD SVG 1.1//EN'  'http://www.w3.org/Graphics/SVG/1.1/DTD/svg11.dtd'>
<svg clip-rule="evenodd" fill-rule="evenodd" stroke-linejoin="round" stroke-miterlimit="2" version="1.1" viewBox="0 0 512 512" xml:space="preserve" xmlns="http://www.w3.org/2000/svg"><path d="m449.45 0c34.525 0 62.554 28.03 62.554 62.554v386.89c0 34.524-28.03 62.554-62.554 62.554h-106.47v-192.92h66.6l12.672-82.621h-79.272v-53.617c0-22.603 11.073-44.636 46.58-44.636h36.042v-70.34s-32.71-5.582-63.982-5.582c-65.288 0-107.96 39.569-107.96 111.2v62.971h-72.573v82.621h72.573v192.92h-191.1c-34.524 0-62.554-28.03-62.554-62.554v-386.89c0-34.524 28.029-62.554 62.554-62.554h386.89z" fill="#1777f2"/></svg>
