<?xml version="1.0" encoding="UTF-8"?>
<!DOCTYPE svg  PUBLIC '-//W3C//DTD SVG 1.1//EN'  'http://www.w3.org/Graphics/SVG/1.1/DTD/svg11.dtd'>
<svg clip-rule="evenodd" fill-rule="evenodd" stroke-linejoin="round" stroke-miterlimit="2" version="1.1" viewBox="0 0 512 512" xml:space="preserve" xmlns="http://www.w3.org/2000/svg"><path d="m512 64c0-35.323-28.677-64-64-64h-384c-35.323 0-64 28.677-64 64v384c0 35.323 28.677 64 64 64h384c35.323 0 64-28.677 64-64v-384z" fill="#2867b2"/><g fill="#fff"><rect x="61.053" y="178.67" width="85.76" height="257.96"/><path d="m104.51 54.28c-29.341 0-48.512 19.29-48.512 44.573 0 24.752 18.588 44.574 47.377 44.574h0.554c29.903 0 48.516-19.822 48.516-44.574-0.555-25.283-18.611-44.573-47.935-44.573z" fill-rule="nonzero"/><path d="m357.28 172.6c-45.49 0-65.866 25.017-77.276 42.589v-36.523h-85.738c1.137 24.197 0 257.96 0 257.96h85.737v-144.06c0-7.711 0.554-15.42 2.827-20.931 6.188-15.4 20.305-31.352 43.993-31.352 31.012 0 43.436 23.664 43.436 58.327v138.02h85.741v-147.93c0-79.237-42.305-116.1-98.72-116.1z" fill-rule="nonzero"/></g></svg>
